<mxfile host="Electron" modified="2023-07-17T10:02:34.556Z" agent="Mozilla/5.0 (Windows NT 6.1; Win64; x64) AppleWebKit/537.36 (KHTML, like Gecko) draw.io/21.1.2 Chrome/106.0.5249.199 Electron/21.4.3 Safari/537.36" etag="4al7rzv9x59Smo1ssnHG" version="21.1.2" type="device">
  <diagram name="ページ1" id="HnClHyY8cUkIvw8qRZSE">
    <mxGraphModel dx="1418" dy="775" grid="1" gridSize="10" guides="1" tooltips="1" connect="1" arrows="1" fold="1" page="1" pageScale="1" pageWidth="1169" pageHeight="827" math="0" shadow="0">
      <root>
        <mxCell id="0" />
        <mxCell id="1" parent="0" />
        <mxCell id="6xBcISW6ILnKEVfqixVu-1" value="" style="sketch=0;outlineConnect=0;fillColor=#0050ef;strokeColor=#001DBC;dashed=0;verticalLabelPosition=bottom;verticalAlign=top;align=center;html=1;fontSize=12;fontStyle=0;aspect=fixed;pointerEvents=1;shape=mxgraph.aws4.container_registry_image;fontColor=#ffffff;opacity=20;" vertex="1" parent="1">
          <mxGeometry x="320" y="79.91" width="160.09" height="160.09" as="geometry" />
        </mxCell>
        <mxCell id="6xBcISW6ILnKEVfqixVu-2" value="" style="rounded=0;whiteSpace=wrap;html=1;fillColor=none;strokeWidth=8;" vertex="1" parent="1">
          <mxGeometry x="320" y="79.91" width="160" height="160.09" as="geometry" />
        </mxCell>
        <mxCell id="6xBcISW6ILnKEVfqixVu-3" value="&lt;b&gt;&lt;font style=&quot;font-size: 17px;&quot;&gt;#2 = (&lt;font color=&quot;#cc0000&quot;&gt;x, y&lt;/font&gt;, z, w) = &lt;br&gt;(&lt;font color=&quot;#cc0000&quot;&gt;-1, 1&lt;/font&gt;, 0, 1)&lt;/font&gt;&lt;/b&gt;" style="rounded=0;whiteSpace=wrap;html=1;fillColor=none;strokeColor=none;align=right;" vertex="1" parent="1">
          <mxGeometry x="160" y="20" width="160" height="49.91" as="geometry" />
        </mxCell>
        <mxCell id="6xBcISW6ILnKEVfqixVu-4" value="" style="rounded=0;whiteSpace=wrap;html=1;strokeColor=none;fillColor=none;" vertex="1" parent="1">
          <mxGeometry width="40" height="40" as="geometry" />
        </mxCell>
        <mxCell id="6xBcISW6ILnKEVfqixVu-5" value="" style="rounded=0;whiteSpace=wrap;html=1;strokeColor=none;fillColor=none;" vertex="1" parent="1">
          <mxGeometry x="1160" width="40" height="40" as="geometry" />
        </mxCell>
        <mxCell id="6xBcISW6ILnKEVfqixVu-6" value="&lt;b style=&quot;border-color: var(--border-color); font-size: 17px;&quot;&gt;#1 =&amp;nbsp;&lt;/b&gt;&lt;font size=&quot;1&quot; style=&quot;&quot;&gt;&lt;span style=&quot;font-size: 17px;&quot;&gt;&lt;b style=&quot;&quot;&gt;(&lt;font color=&quot;#cc0000&quot;&gt;1, -1&lt;/font&gt;, 0, 1)&lt;/b&gt;&lt;/span&gt;&lt;/font&gt;" style="rounded=0;whiteSpace=wrap;html=1;fillColor=none;strokeColor=none;" vertex="1" parent="1">
          <mxGeometry x="480" y="239.91" width="160" height="40" as="geometry" />
        </mxCell>
        <mxCell id="6xBcISW6ILnKEVfqixVu-7" value="&lt;b style=&quot;border-color: var(--border-color); font-size: 17px;&quot;&gt;#0 =&amp;nbsp;&lt;/b&gt;&lt;b&gt;&lt;font style=&quot;font-size: 17px;&quot;&gt;(&lt;font color=&quot;#cc0000&quot;&gt;-1, -&lt;/font&gt;&lt;/font&gt;&lt;/b&gt;&lt;b style=&quot;border-color: var(--border-color);&quot;&gt;&lt;font style=&quot;border-color: var(--border-color); font-size: 17px;&quot;&gt;&lt;font color=&quot;#cc0000&quot;&gt;1&lt;/font&gt;, 0, 1&lt;/font&gt;&lt;/b&gt;&lt;b&gt;&lt;font style=&quot;font-size: 17px;&quot;&gt;)&lt;/font&gt;&lt;/b&gt;" style="rounded=0;whiteSpace=wrap;html=1;fillColor=none;strokeColor=none;" vertex="1" parent="1">
          <mxGeometry x="160" y="239.91" width="150" height="40" as="geometry" />
        </mxCell>
        <mxCell id="6xBcISW6ILnKEVfqixVu-8" value="&lt;b&gt;&lt;font style=&quot;font-size: 17px;&quot;&gt;#3 = (&lt;font color=&quot;#cc0000&quot;&gt;1, 1&lt;/font&gt;, 0, 1)&lt;/font&gt;&lt;/b&gt;" style="rounded=0;whiteSpace=wrap;html=1;fillColor=none;strokeColor=none;" vertex="1" parent="1">
          <mxGeometry x="480" y="39.91" width="160" height="40" as="geometry" />
        </mxCell>
        <mxCell id="6xBcISW6ILnKEVfqixVu-9" value="image" style="rounded=0;whiteSpace=wrap;html=1;fillColor=none;strokeColor=none;fontColor=#0000CC;textOpacity=30;fontSize=18;fontStyle=1" vertex="1" parent="1">
          <mxGeometry x="328.54" y="89.91" width="151.46" height="30" as="geometry" />
        </mxCell>
        <mxCell id="6xBcISW6ILnKEVfqixVu-10" style="rounded=0;orthogonalLoop=1;jettySize=auto;html=1;entryX=-0.011;entryY=0.281;entryDx=0;entryDy=0;entryPerimeter=0;" edge="1" parent="1" source="6xBcISW6ILnKEVfqixVu-11" target="6xBcISW6ILnKEVfqixVu-2">
          <mxGeometry relative="1" as="geometry">
            <mxPoint x="412" y="463.82835820895525" as="targetPoint" />
          </mxGeometry>
        </mxCell>
        <mxCell id="6xBcISW6ILnKEVfqixVu-11" value="MetalKit View" style="rounded=1;whiteSpace=wrap;html=1;fontStyle=1;fontSize=16;fontColor=#000000;strokeColor=none;fillColor=none;" vertex="1" parent="1">
          <mxGeometry x="120" y="100" width="110" height="30" as="geometry" />
        </mxCell>
        <mxCell id="6xBcISW6ILnKEVfqixVu-12" style="edgeStyle=none;shape=connector;rounded=0;orthogonalLoop=1;jettySize=auto;html=1;labelBackgroundColor=default;strokeColor=#FF0000;strokeWidth=4;fontFamily=Helvetica;fontSize=11;fontColor=default;endArrow=classic;" edge="1" parent="1" source="6xBcISW6ILnKEVfqixVu-13" target="6xBcISW6ILnKEVfqixVu-17">
          <mxGeometry relative="1" as="geometry" />
        </mxCell>
        <mxCell id="6xBcISW6ILnKEVfqixVu-13" value="2" style="ellipse;whiteSpace=wrap;html=1;aspect=fixed;fillColor=default;strokeColor=#CC0000;fontSize=15;strokeWidth=3;fontStyle=1;" vertex="1" parent="1">
          <mxGeometry x="310" y="69.91" width="20" height="20" as="geometry" />
        </mxCell>
        <mxCell id="6xBcISW6ILnKEVfqixVu-14" value="0" style="ellipse;whiteSpace=wrap;html=1;aspect=fixed;fillColor=default;strokeColor=#CC0000;strokeWidth=3;fontStyle=1;fontSize=15;" vertex="1" parent="1">
          <mxGeometry x="310" y="229.90999999999997" width="20" height="20" as="geometry" />
        </mxCell>
        <mxCell id="6xBcISW6ILnKEVfqixVu-15" style="edgeStyle=none;shape=connector;rounded=0;orthogonalLoop=1;jettySize=auto;html=1;labelBackgroundColor=default;strokeColor=#FF0000;strokeWidth=4;fontFamily=Helvetica;fontSize=11;fontColor=default;endArrow=classic;" edge="1" parent="1" source="6xBcISW6ILnKEVfqixVu-16" target="6xBcISW6ILnKEVfqixVu-13">
          <mxGeometry relative="1" as="geometry" />
        </mxCell>
        <mxCell id="6xBcISW6ILnKEVfqixVu-16" value="1" style="ellipse;whiteSpace=wrap;html=1;aspect=fixed;fillColor=default;strokeColor=#CC0000;fontSize=15;strokeWidth=3;fontStyle=1;" vertex="1" parent="1">
          <mxGeometry x="470" y="229.90999999999997" width="20" height="20" as="geometry" />
        </mxCell>
        <mxCell id="6xBcISW6ILnKEVfqixVu-17" value="3" style="ellipse;whiteSpace=wrap;html=1;aspect=fixed;fillColor=default;strokeColor=#CC0000;fontSize=15;strokeWidth=3;fontStyle=1;" vertex="1" parent="1">
          <mxGeometry x="470" y="69.91" width="20" height="20" as="geometry" />
        </mxCell>
        <mxCell id="6xBcISW6ILnKEVfqixVu-18" value="" style="endArrow=classic;html=1;rounded=0;strokeWidth=4;strokeColor=#FF0000;" edge="1" parent="1" source="6xBcISW6ILnKEVfqixVu-14" target="6xBcISW6ILnKEVfqixVu-16">
          <mxGeometry width="50" height="50" relative="1" as="geometry">
            <mxPoint x="270" y="250" as="sourcePoint" />
            <mxPoint x="480" y="320" as="targetPoint" />
          </mxGeometry>
        </mxCell>
        <mxCell id="6xBcISW6ILnKEVfqixVu-19" value="TriangleStrip" style="text;align=center;verticalAlign=middle;resizable=0;points=[];autosize=1;strokeColor=none;fillColor=none;fontSize=24;fontStyle=1;labelBorderColor=none;labelBackgroundColor=none;html=1;fontColor=#CC0000;" vertex="1" parent="1">
          <mxGeometry x="315" y="290" width="170" height="40" as="geometry" />
        </mxCell>
      </root>
    </mxGraphModel>
  </diagram>
</mxfile>
